<?xml version="1.0" encoding="UTF-8" standalone="no"?>
<!-- Created with Inkscape (http://www.inkscape.org/) -->

<svg
   xmlns:dc="http://purl.org/dc/elements/1.1/"
   xmlns:cc="http://creativecommons.org/ns#"
   xmlns:rdf="http://www.w3.org/1999/02/22-rdf-syntax-ns#"
   xmlns:svg="http://www.w3.org/2000/svg"
   xmlns="http://www.w3.org/2000/svg"
   xmlns:sodipodi="http://sodipodi.sourceforge.net/DTD/sodipodi-0.dtd"
   xmlns:inkscape="http://www.inkscape.org/namespaces/inkscape"
   width="900"
   height="900"
   viewBox="0 0 238.12499 238.12501"
   version="1.1"
   id="svg5187"
   inkscape:export-filename="C:\Users\vm111204\Dev\_Personal\LD46\Assets\Sprites\menu-bg.png"
   inkscape:export-xdpi="96"
   inkscape:export-ydpi="96"
   inkscape:version="0.92.4 (5da689c313, 2019-01-14)"
   sodipodi:docname="menu-bg.svg">
  <defs
     id="defs5181" />
  <sodipodi:namedview
     id="base"
     pagecolor="#ffffff"
     bordercolor="#666666"
     borderopacity="1.0"
     inkscape:pageopacity="0.0"
     inkscape:pageshadow="2"
     inkscape:zoom="1.4"
     inkscape:cx="474.75682"
     inkscape:cy="399.98626"
     inkscape:document-units="mm"
     inkscape:current-layer="layer1"
     showgrid="false"
     units="px"
     inkscape:pagecheckerboard="true"
     inkscape:window-width="3840"
     inkscape:window-height="2066"
     inkscape:window-x="-11"
     inkscape:window-y="-11"
     inkscape:window-maximized="1" />
  <metadata
     id="metadata5184">
    <rdf:RDF>
      <cc:Work
         rdf:about="">
        <dc:format>image/svg+xml</dc:format>
        <dc:type
           rdf:resource="http://purl.org/dc/dcmitype/StillImage" />
        <dc:title></dc:title>
      </cc:Work>
    </rdf:RDF>
  </metadata>
  <g
     inkscape:label="Layer 1"
     inkscape:groupmode="layer"
     id="layer1"
     transform="translate(0,-58.874983)">
    <path
       style="fill:#c8c4b2;fill-opacity:0.60311279;stroke:none;stroke-width:0.26458332px;stroke-linecap:butt;stroke-linejoin:miter;stroke-opacity:1"
       d="m 129.64583,303.42557 0.56697,-11.33928 h -16.06399 l 10.39434,-10.39434 15.68601,-0.56697 4.34673,-6.99256 149.96205,-0.47247 -3.59077,63.49999 -162.34077,0.85045"
       id="path5755"
       inkscape:connector-curvature="0"
       sodipodi:nodetypes="ccccccccc" />
    <path
       style="fill:#c8c4b2;fill-opacity:0.60311279;stroke:none;stroke-width:0.26458332px;stroke-linecap:butt;stroke-linejoin:miter;stroke-opacity:1"
       d="M -4.7247024,62.276768 44.790177,82.876471 68.41369,125.77677 h -4.157739 l -11.717261,-4.7247 -0.944941,30.61607 16.252976,8.31547 -1.889882,9.82738 22.867562,3.02381 10.394344,15.11905 0.377976,120.00744 -110.558034,-0.94494 -5.480655,-246.251486"
       id="path5749"
       inkscape:connector-curvature="0" />
    <path
       style="fill:#c8c4b2;fill-opacity:0.60311279;stroke:none;stroke-width:0.26458332px;stroke-linecap:butt;stroke-linejoin:miter;stroke-opacity:1"
       d="m 238.125,53.961292 -12.6622,6.425596 v 4.346726 l -5.45807,20.369764 -33.85146,-0.526015 -13.60714,51.971727 v 15.11905 l -6.80357,0.18898 v 18.70983 l -5.38459,20.09555 v 119.94462 h 98.74471 l 1.70089,-263.638387"
       id="path5751"
       inkscape:connector-curvature="0" />
    <path
       style="fill:#c8c4b2;fill-opacity:0.60311279;stroke:none;stroke-width:0.26458332px;stroke-linecap:butt;stroke-linejoin:miter;stroke-opacity:1"
       d="m 254.18899,41.677066 -41.01042,86.178574 v 5.10268 l 36.4747,-10.96131 v 32.50595 l -28.91518,7.18155 -3.28015,5.68139 5.17003,15.1073 -35.24627,35.24627 5.76413,15.78051 14.56947,3.90388 -0.96233,80.19582 74.65029,2.83482 -3.02379,-278.568446"
       id="path5753"
       inkscape:connector-curvature="0" />
    <path
       style="fill:#c8c4b2;fill-opacity:0.60311279;stroke:none;stroke-width:0.26458332px;stroke-linecap:butt;stroke-linejoin:miter;stroke-opacity:1"
       d="m -52.916666,147.69939 62.933035,0.18898 -3.2127976,50.64881 -64.0669634,-0.37797"
       id="path5757"
       inkscape:connector-curvature="0" />
    <path
       style="fill:#c8c4b2;fill-opacity:0.60311279;stroke:none;stroke-width:0.26458332px;stroke-linecap:butt;stroke-linejoin:miter;stroke-opacity:1"
       d="m -47.839172,52.811753 42.9254815,48.396567 -0.1889879,8.31547 -45.7351196,32.50595 -5.480653,-85.044638"
       id="path5759"
       inkscape:connector-curvature="0" />
    <path
       style="fill:#c8c4b2;fill-opacity:0.60311279;stroke:none;stroke-width:0.26458332px;stroke-linecap:butt;stroke-linejoin:miter;stroke-opacity:1"
       d="M 38.175594,317.97766 V 208.17558 l 23.90336,13.80061 -1.602764,105.45087"
       id="path5761"
       inkscape:connector-curvature="0" />
  </g>
</svg>
