<?xml version="1.0" encoding="UTF-8" standalone="no"?>
<!-- Created with Inkscape (http://www.inkscape.org/) -->

<svg
   xmlns:dc="http://purl.org/dc/elements/1.1/"
   xmlns:cc="http://creativecommons.org/ns#"
   xmlns:rdf="http://www.w3.org/1999/02/22-rdf-syntax-ns#"
   xmlns:svg="http://www.w3.org/2000/svg"
   xmlns="http://www.w3.org/2000/svg"
   xmlns:sodipodi="http://sodipodi.sourceforge.net/DTD/sodipodi-0.dtd"
   xmlns:inkscape="http://www.inkscape.org/namespaces/inkscape"
   width="512"
   height="512"
   viewBox="0 0 135.46666 135.46667"
   version="1.1"
   id="svg1386"
   inkscape:version="0.92.4 (5da689c313, 2019-01-14)"
   sodipodi:docname="cog.svg"
   inkscape:export-filename="C:\Users\vm111204\Dev\_Personal\LD46\Assets\Sprites\cog.png"
   inkscape:export-xdpi="96"
   inkscape:export-ydpi="96">
  <defs
     id="defs1380" />
  <sodipodi:namedview
     id="base"
     pagecolor="#ffffff"
     bordercolor="#666666"
     borderopacity="1.0"
     inkscape:pageopacity="0.0"
     inkscape:pageshadow="2"
     inkscape:zoom="1.4"
     inkscape:cx="346.78947"
     inkscape:cy="213.77412"
     inkscape:document-units="mm"
     inkscape:current-layer="layer1"
     showgrid="false"
     units="px"
     inkscape:pagecheckerboard="true"
     inkscape:window-width="3840"
     inkscape:window-height="2066"
     inkscape:window-x="-11"
     inkscape:window-y="-11"
     inkscape:window-maximized="1" />
  <metadata
     id="metadata1383">
    <rdf:RDF>
      <cc:Work
         rdf:about="">
        <dc:format>image/svg+xml</dc:format>
        <dc:type
           rdf:resource="http://purl.org/dc/dcmitype/StillImage" />
        <dc:title></dc:title>
      </cc:Work>
    </rdf:RDF>
  </metadata>
  <g
     inkscape:label="Layer 1"
     inkscape:groupmode="layer"
     id="layer1"
     transform="translate(0,-161.53332)">
    <path
       style="fill:#ffffff;fill-opacity:1;stroke:none;stroke-width:0.91297203"
       d="m 256,4.9277344 a 251.07142,251.07142 0 0 0 -16.95312,0.9960937 251.07142,251.07142 0 0 0 -16.38477,1.5234375 251.07142,251.07142 0 0 0 -0.23438,0.021484 v 0.00781 L 207.375,63.65625 a 198.57142,198.57142 0 0 0 -52.95703,21.978516 l -50.41016,-29.105469 -0.006,-0.0039 a 251.07142,251.07142 0 0 0 -0.17968,0.15039 A 251.07142,251.07142 0 0 0 91.158203,67.185547 251.07142,251.07142 0 0 0 78.466797,78.46875 251.07142,251.07142 0 0 0 67.183594,91.160156 251.07142,251.07142 0 0 0 56.675781,103.82227 a 251.07142,251.07142 0 0 0 -0.15039,0.18164 l 29.115234,50.42773 a 198.57142,198.57142 0 0 0 -21.90625,52.92188 L 7.4765625,222.42773 H 7.46875 A 251.07142,251.07142 0 0 0 7.4472656,222.66211 251.07142,251.07142 0 0 0 5.9238281,239.04688 251.07142,251.07142 0 0 0 4.9277344,256 a 251.07142,251.07142 0 0 0 0.9960937,16.95312 251.07142,251.07142 0 0 0 1.5234375,16.38477 251.07142,251.07142 0 0 0 0.021484,0.23438 l 56.1875,15.05468 a 198.57142,198.57142 0 0 0 21.978516,52.95703 l -29.111328,50.42188 a 251.07142,251.07142 0 0 0 0.148437,0.18164 251.07142,251.07142 0 0 0 10.509766,12.66211 251.07142,251.07142 0 0 0 11.283203,12.69336 l 0.0039,-0.006 a 251.07142,251.07142 0 0 0 12.691406,11.2832 251.07142,251.07142 0 0 0 12.664064,10.50977 251.07142,251.07142 0 0 0 0.18164,0.14844 l 0.004,-0.004 50.42578,-29.11328 a 198.57142,198.57142 0 0 0 52.91797,21.90429 l 15.07421,56.25782 v 0.008 a 251.07142,251.07142 0 0 0 0.23438,0.0215 251.07142,251.07142 0 0 0 16.38477,1.52344 251.07142,251.07142 0 0 0 16.95312,0.9961 251.07142,251.07142 0 0 0 16.95312,-0.9961 251.07142,251.07142 0 0 0 16.38477,-1.52344 251.07142,251.07142 0 0 0 0.23438,-0.0215 l 15.05468,-56.1875 a 198.57142,198.57142 0 0 0 52.94922,-21.97461 L 408,455.48047 a 251.07142,251.07142 0 0 0 0.18359,-0.15039 251.07142,251.07142 0 0 0 12.66211,-10.50781 251.07142,251.07142 0 0 0 12.69141,-11.28321 l -0.002,-0.004 a 251.07142,251.07142 0 0 0 11.2832,-12.69336 251.07142,251.07142 0 0 0 10.50781,-12.66211 251.07142,251.07142 0 0 0 0.15039,-0.18164 l -0.004,-0.004 -29.11328,-50.42578 a 198.57142,198.57142 0 0 0 21.90429,-52.91992 l 56.26758,-15.07617 a 251.07142,251.07142 0 0 0 0.0234,-0.23438 251.07142,251.07142 0 0 0 1.52343,-16.38477 A 251.07142,251.07142 0 0 0 507.07422,256 h -0.002 a 251.07142,251.07142 0 0 0 -0.9961,-16.95312 251.07142,251.07142 0 0 0 -1.52344,-16.38477 251.07142,251.07142 0 0 0 -0.0234,-0.23438 h -0.006 L 448.34375,207.375 a 198.57142,198.57142 0 0 0 -21.97461,-52.95117 l 29.10547,-50.41211 0.004,-0.004 a 251.07142,251.07142 0 0 0 -0.1504,-0.18164 A 251.07142,251.07142 0 0 0 444.81836,91.164062 251.07142,251.07142 0 0 0 433.53516,78.470703 251.07142,251.07142 0 0 0 420.84375,67.1875 251.07142,251.07142 0 0 0 408.17969,56.679688 251.07142,251.07142 0 0 0 408,56.529297 L 357.57422,85.644531 A 198.57142,198.57142 0 0 0 304.64844,63.734375 L 289.57227,7.46875 A 251.07142,251.07142 0 0 0 289.33789,7.4472656 251.07142,251.07142 0 0 0 272.95312,5.9238281 251.07142,251.07142 0 0 0 256,4.9277344 Z M 256,123.85742 A 132.14285,132.14285 0 0 1 388.14258,256 132.14285,132.14285 0 0 1 256,388.14258 132.14285,132.14285 0 0 1 123.85742,256 132.14285,132.14285 0 0 1 256,123.85742 Z"
       transform="matrix(0.26458333,0,0,0.26458333,0,161.53332)"
       id="path1931"
       inkscape:connector-curvature="0" />
  </g>
</svg>
